<svg width="49" height="15" viewBox="0 0 49 15" fill="none" xmlns="http://www.w3.org/2000/svg">
<path d="M1 6.36328C0.447716 6.36328 4.82823e-08 6.81099 0 7.36328C-4.82823e-08 7.91556 0.447716 8.36328 1 8.36328L1 7.36328L1 6.36328ZM48.7071 8.07039C49.0976 7.67986 49.0976 7.0467 48.7071 6.65617L42.3431 0.292213C41.9526 -0.0983115 41.3195 -0.0983115 40.9289 0.292213C40.5384 0.682737 40.5384 1.3159 40.9289 1.70643L46.5858 7.36328L40.9289 13.0201C40.5384 13.4107 40.5384 14.0438 40.9289 14.4343C41.3195 14.8249 41.9526 14.8249 42.3431 14.4343L48.7071 8.07039ZM1 7.36328L1 8.36328L48 8.36328L48 7.36328L48 6.36328L1 6.36328L1 7.36328Z" fill="#FFD1B9"/>
</svg>
