<svg width="177" height="28" viewBox="0 0 177 28" fill="none" xmlns="http://www.w3.org/2000/svg">
<g clip-path="url(#clip0_539_142)">
<mask id="mask0_539_142" style="mask-type:alpha" maskUnits="userSpaceOnUse" x="0" y="0" width="177" height="28">
<path d="M0 0H176.384V27.6891H0V0Z" fill="white"/>
</mask>
<g mask="url(#mask0_539_142)">
<path fill-rule="evenodd" clip-rule="evenodd" d="M14.8566 4.58769H15.1623V0.641128H0V0.905333C1.74867 2.33979 1.98823 2.75908 1.98823 4.32564V23.4317C1.98823 24.9983 1.74867 25.4161 0 26.8513V27.1169H7.86477V26.8513C6.09477 25.5073 5.78911 24.9983 5.78911 23.4985V14.0323H7.49229C9.72149 14.0323 10.1153 14.1867 12.014 16.6356H12.277V10.4153H12.014C10.1146 12.8621 9.72149 13.0186 7.49229 13.0186H5.78911V1.60964H8.38866C9.43858 1.60964 10.3328 1.96215 14.8573 4.58841L14.8566 4.58769ZM20.8391 15.8178H15.5774L18.0703 8.12287C18.1855 8.39856 18.3014 8.70441 18.4258 9.06626L20.8391 15.8178ZM24.9797 18.0693L20.4168 5.404H16.2861V5.6481C16.8669 6.19374 17.2401 6.61015 17.5358 7.06964L14.1237 17.5388C13.5131 19.4148 13.1193 20.0107 11.5668 21.4659V21.733H16.3522V21.4667C15.0414 20.6511 14.605 20.1227 14.605 19.3487C14.605 18.9754 14.7145 18.4685 14.9988 17.607L15.2988 16.6794H21.1462L21.6814 18.1777C22.0106 19.129 22.0752 19.526 22.0752 19.8793C22.0752 20.4292 21.7035 20.893 20.6998 21.4659V21.733H27.3831V21.4667C25.8093 20.165 25.5705 19.7264 24.9805 18.0693H24.9797ZM35.0218 4.58841H35.3289V0.772513C33.8646 0.506872 32.2261 0.286462 30.7191 0.286462C26.3261 0.286462 24.1651 3.24441 24.1651 6.39836C24.1651 10.0384 26.5031 12.2224 29.495 14.7395C32.7272 17.4749 34.628 19.129 34.628 22.283C34.628 24.887 32.9256 26.4758 30.6544 26.4758C28.6662 26.4758 27.0931 25.6796 22.9176 22.3706H22.5508L24.077 26.6747C25.9123 27.1964 27.8094 27.4635 29.7161 27.4687C34.7176 27.4687 37.6228 24.4031 37.6228 20.1442C37.6228 16.217 35.3502 14.2096 32.1159 11.5618C29.1453 9.13231 27.1137 7.17087 27.1137 4.34646C27.1137 2.51497 28.3157 1.25785 30.1732 1.25785C31.4619 1.25785 32.3576 1.76472 35.0211 4.58841H35.0218ZM54.2686 4.58841H54.5729V0.638974H36.7051V4.58769H37.0093C41.2261 1.89754 42.0791 1.54215 43.0615 1.54215H43.7396V23.497C43.7396 24.9968 43.4325 25.5058 41.6625 26.8498V27.1155H49.6147V26.8498C47.8447 25.5058 47.5384 24.9968 47.5384 23.497V1.54359H48.2172C49.1982 1.54359 50.0512 1.89897 54.2686 4.58913V4.58841ZM77.0568 3.8841H77.3653V0.485333C75.5954 0.219692 73.3228 0 71.2485 0C61.9628 0 56.4573 5.23026 56.4573 13.8995C56.4573 22.4172 61.7218 27.6898 70.8967 27.6898C73.278 27.6898 75.4191 27.3373 77.1237 26.8728L77.799 23.1014H77.4961C74.0656 26.0357 72.5359 26.7192 70.0465 26.7192C63.1854 26.7192 60.8916 21.4889 60.8916 13.7458C60.8916 5.86851 63.1854 1.05897 69.674 1.05897C71.7476 1.05897 73.2147 1.54359 77.0568 3.88482V3.8841ZM76.1718 13.7458C76.1718 18.1153 75.8022 21.0036 72.6766 21.0036C69.5311 21.0036 69.1807 18.1153 69.1807 13.7451C69.1807 9.37641 69.5311 6.48595 72.6766 6.48595C75.8228 6.48595 76.1718 9.37641 76.1718 13.7458ZM79.8853 13.7458C79.8853 9.13231 77.177 5.66892 72.6773 5.66892C68.1777 5.66892 65.4687 9.15815 65.4687 13.7458C65.4687 18.312 68.177 21.8192 72.6766 21.8192C77.1777 21.8192 79.8853 18.312 79.8853 13.7458ZM95.9539 27.0695L103.731 27.1155V26.8498C101.983 25.4154 101.744 24.9975 101.744 23.431V4.32492C101.744 2.75836 101.983 2.33908 103.731 0.926154V0.661949L98.2265 0.617436L92.1139 20.1744L85.8621 0.639692H80.2926V0.904615C81.3425 1.82646 81.9858 2.42667 82.4536 3.04338V21.555C82.4536 23.6945 82.192 24.556 80.2244 26.8506V27.1162H86.4528V26.8506C83.8298 24.668 83.4601 23.7849 83.4601 21.555V5.08451C83.5028 5.21087 83.5454 5.33005 83.5881 5.47077L90.6041 27.3366H90.9083L97.9407 4.83179V23.4087C97.9407 24.976 97.7012 25.3938 95.9539 26.8068V27.0695ZM118.466 8.73887C118.466 13.7021 117.309 15.7755 113.551 15.7755H111.388V1.60964H112.916C117.067 1.60964 118.466 3.39733 118.466 8.73887ZM122.528 8.56082C122.528 2.60328 118.4 0.64041 112.808 0.64041H105.6V0.904615C107.346 2.33908 107.585 2.75836 107.585 4.32492V23.431C107.585 24.9975 107.346 25.4154 105.6 26.8506V27.1162H113.463V26.8506C111.693 25.5066 111.388 24.9975 111.388 23.4977V16.7462H113.439C118.378 16.7462 122.528 14.6268 122.528 8.56082ZM132.123 17.4526H124.704L128.358 4.1081C128.436 4.33569 128.512 4.57908 128.589 4.85333L132.122 17.4533L132.123 17.4526ZM176.386 0.903897V0.641128H170.467V0.905333C172.062 2.33979 172.542 3.02328 172.542 4.06072C172.542 4.6121 172.411 5.05292 171.972 6.06882L168.574 14.0948L164.132 4.14759C163.781 3.37723 163.67 2.95651 163.67 2.56092C163.67 1.85518 164.066 1.45672 165.135 0.905333V0.64041H152.029V0.904615C154.956 3.09005 155.351 3.94872 155.351 6.35528V21.583L144.406 0.639692H138.965V0.903897C140.1 1.88749 140.758 2.50133 141.325 3.26092V21.6189C141.325 23.614 141.105 24.482 139.539 26.8498C138.332 25.322 138.069 24.5883 137.457 22.4158L131.276 0.64041H125.969V0.904615C126.803 1.6441 127.33 2.15672 127.724 2.75692L122.583 21.4466C121.84 24.1604 121.249 24.976 119.283 26.8506V27.1162H125.62V26.8506C123.805 25.4606 123.239 24.7549 123.239 23.5408C123.239 23.0562 123.348 22.3706 123.611 21.4466L124.432 18.4455H132.398L133.506 22.3943C133.854 23.6306 133.985 24.1604 133.985 24.645C133.985 25.3285 133.705 25.7923 132.37 26.8506V27.1162H145.652V26.8506C142.722 24.668 142.331 23.8065 142.331 21.6203V4.9079C142.352 4.95241 142.373 4.98544 142.395 5.03138L153.952 27.1155H156.356V6.35528C156.356 4.15836 156.572 3.28462 158.083 0.918256C159.067 2.12082 159.691 3.13169 160.504 4.96533L165.223 15.4955V23.4985C165.223 24.9975 164.916 25.5066 163.147 26.8506V27.1162H171.101V26.8506C169.329 25.5066 169.026 24.9975 169.026 23.4977V15.3763L172.955 6.13415C173.788 4.17056 174.42 3.24513 176.387 0.905333L176.386 0.903897Z" fill="#C1ACFF"/>
</g>
</g>
<defs>
<clipPath id="clip0_539_142">
<rect width="177" height="28" fill="white"/>
</clipPath>
</defs>
</svg>
