<svg width="742" height="86" viewBox="0 0 742 86" fill="none" xmlns="http://www.w3.org/2000/svg">
<path d="M48.6406 40.7507V47.4759C48.6406 51.5424 50.2915 55.2438 52.9503 57.92C55.6265 60.5962 59.328 62.2297 63.3944 62.2297V83.6219H0V62.2297C8.15022 62.2297 14.7538 55.6262 14.7538 47.4759V40.7507C14.7538 36.6843 13.1029 32.9828 10.4441 30.324C7.7679 27.6478 4.0838 25.9969 0 25.9969V1.40723H63.3944V25.9795C55.2442 25.9795 48.6406 32.6005 48.6406 40.7333V40.7507Z" fill="white"/>
<path d="M178.331 1.40723H114.623L75.8359 83.6219H117.821L122.096 74.5854H163.751L167.765 83.6219H214.841L178.331 1.40723ZM129.968 57.9027L142.984 30.324H144.114L156.365 57.9027H129.985H129.968Z" fill="white"/>
<path d="M332.786 1.47674H318.641L300.533 39.4126H299.89L281.782 1.47674H267.636V1.40723H225.756V83.6393H267.636V43.4964H268.366L288.473 83.6914H311.95L332.056 43.4964H332.786V83.6393H374.667V1.40723H332.786V1.47674Z" fill="white"/>
<path d="M678.015 26.1711C697.13 26.1711 698.903 34.7905 699.459 36.563H742V34.9121C742 22.765 735.032 0 680.552 0H676.677C620.094 0 612.691 23.6513 612.691 40.8901V44.2093C612.691 61.3439 620.529 85.5338 676.677 85.5338H680.552C735.032 85.5338 742 62.2127 742 50.726V47.8586H699.459C699.129 49.8397 697.356 59.1369 678.015 59.1369C658.673 59.1369 655.91 49.9614 655.91 42.8886V41.5678C655.91 34.3908 659.229 26.2058 678.015 26.2058V26.1711Z" fill="white"/>
<path d="M491.463 43.1315V42.6101C505.748 42.6101 514.194 34.9813 514.194 20.8878C514.194 6.79436 501.751 1.47674 481.089 1.47674H434.429V1.40723H392.531V83.6219H411.977V83.674H492.523C510.631 83.674 519.059 74.7418 519.059 62.4209C519.059 49.0921 511.9 43.1315 491.446 43.1315H491.463ZM434.429 22.7299H465.119C469.602 22.7299 471.601 25.2497 471.601 28.4819C471.601 31.7142 469.411 34.234 465.119 34.234H434.429V22.7299ZM468.403 62.4209H434.429V50.9168H468.403C471.635 50.9168 474.433 52.8283 474.433 56.6688C474.433 60.5093 472.209 62.4209 468.403 62.4209Z" fill="white"/>
<path d="M582.35 40.7507V47.4759C582.35 51.5424 584.001 55.2438 586.677 57.92C589.353 60.5962 593.037 62.2297 597.104 62.2297V83.6219H533.727V62.2297C541.877 62.2297 548.48 55.6262 548.48 47.4759V40.7507C548.48 36.6843 546.829 32.9828 544.153 30.324C541.477 27.6478 537.793 25.9969 533.727 25.9969V1.40723H597.104V25.9795C588.953 25.9795 582.35 32.6005 582.35 40.7333V40.7507Z" fill="white"/>
</svg>
