<svg width="1186" height="137" viewBox="0 0 1186 137" fill="none" xmlns="http://www.w3.org/2000/svg">
<path d="M77.7464 65.1354V75.8849C77.7464 82.3846 80.3851 88.301 84.6349 92.5786C88.9125 96.8562 94.8289 99.4672 101.329 99.4672V133.66H0V99.4672C13.0272 99.4672 23.5822 88.9121 23.5822 75.8849V65.1354C23.5822 58.6358 20.9435 52.7194 16.6937 48.4696C12.4161 44.192 6.52747 41.5532 0 41.5532V2.24951H101.329V41.5254C88.3014 41.5254 77.7464 52.1083 77.7464 65.1077V65.1354Z" fill="#FFA06C"/>
<path d="M285.041 2.24951H183.213L121.216 133.66H188.324L195.157 119.216H261.737L268.153 133.66H343.4L285.041 2.24951ZM207.74 92.5508L228.544 48.4696H230.35L249.932 92.5508H207.767H207.74Z" fill="#FFA06C"/>
<path d="M531.919 2.36062H509.309L480.366 62.9967H479.338L450.395 2.36062H427.785V2.24951H360.844V133.688H427.785V69.5241H428.952L461.089 133.771H498.615L530.752 69.5241H531.919V133.688H598.86V2.24951H531.919V2.36062Z" fill="#FFA06C"/>
<path d="M1083.73 41.8314C1114.28 41.8314 1117.11 55.6085 1118 58.4417H1186V55.8029C1186 36.3872 1174.86 0 1087.78 0H1081.59C991.148 0 979.315 37.8038 979.315 65.358V70.6633C979.315 98.0509 991.843 136.716 1081.59 136.716H1087.78C1174.86 136.716 1186 99.4398 1186 81.0795V76.4964H1118C1117.48 79.6629 1114.64 94.5233 1083.73 94.5233C1052.81 94.5233 1048.4 79.8574 1048.4 68.5523V66.4413C1048.4 54.9696 1053.7 41.8869 1083.73 41.8869V41.8314Z" fill="#FFA06C"/>
<path d="M785.546 68.9408V68.1075C808.379 68.1075 821.878 55.9137 821.878 33.3869C821.878 10.8602 801.99 2.36062 768.964 2.36062H694.384V2.24951H627.415V133.66H658.497V133.743H787.241C816.184 133.743 829.656 119.466 829.656 99.7727C829.656 78.4682 818.212 68.9408 785.519 68.9408H785.546ZM694.384 36.3312H743.437C750.604 36.3312 753.798 40.3588 753.798 45.5253C753.798 50.6917 750.298 54.7193 743.437 54.7193H694.384V36.3312ZM748.687 99.7727H694.384V81.3847H748.687C753.854 81.3847 758.326 84.4401 758.326 90.5787C758.326 96.7173 754.77 99.7727 748.687 99.7727Z" fill="#FFA06C"/>
<path d="M930.818 65.1354V75.8849C930.818 82.3846 933.457 88.301 937.735 92.5786C942.012 96.8562 947.901 99.4672 954.4 99.4672V133.66H853.1V99.4672C866.127 99.4672 876.682 88.9121 876.682 75.8849V65.1354C876.682 58.6358 874.043 52.7194 869.765 48.4696C865.488 44.192 859.599 41.5532 853.1 41.5532V2.24951H954.4V41.5254C941.373 41.5254 930.818 52.1083 930.818 65.1077V65.1354Z" fill="#FFA06C"/>
</svg>
